<mxfile host="app.diagrams.net" modified="2023-09-13T16:33:15.264Z" agent="Mozilla/5.0 (Macintosh; Intel Mac OS X 10_15_7) AppleWebKit/537.36 (KHTML, like Gecko) Chrome/116.0.0.0 Safari/537.36" etag="9k1p6OSmovbonC0C_DpV" version="21.7.5" type="github">
  <diagram id="C5RBs43oDa-KdzZeNtuy" name="Page-1">
    <mxGraphModel dx="1419" dy="651" grid="1" gridSize="10" guides="1" tooltips="1" connect="1" arrows="1" fold="1" page="1" pageScale="1" pageWidth="827" pageHeight="1169" math="0" shadow="0">
      <root>
        <mxCell id="WIyWlLk6GJQsqaUBKTNV-0" />
        <mxCell id="WIyWlLk6GJQsqaUBKTNV-1" parent="WIyWlLk6GJQsqaUBKTNV-0" />
        <mxCell id="AJLxG5e4hJF3SBuOaF8q-6" value="" style="edgeStyle=orthogonalEdgeStyle;rounded=0;orthogonalLoop=1;jettySize=auto;html=1;" edge="1" parent="WIyWlLk6GJQsqaUBKTNV-1" source="WIyWlLk6GJQsqaUBKTNV-3" target="AJLxG5e4hJF3SBuOaF8q-3">
          <mxGeometry relative="1" as="geometry" />
        </mxCell>
        <mxCell id="WIyWlLk6GJQsqaUBKTNV-3" value="Welcome to Hangman" style="rounded=1;whiteSpace=wrap;html=1;fontSize=12;glass=0;strokeWidth=1;shadow=0;" parent="WIyWlLk6GJQsqaUBKTNV-1" vertex="1">
          <mxGeometry x="160" y="70" width="120" height="40" as="geometry" />
        </mxCell>
        <mxCell id="AJLxG5e4hJF3SBuOaF8q-5" value="" style="edgeStyle=orthogonalEdgeStyle;rounded=0;orthogonalLoop=1;jettySize=auto;html=1;" edge="1" parent="WIyWlLk6GJQsqaUBKTNV-1" source="AJLxG5e4hJF3SBuOaF8q-3" target="AJLxG5e4hJF3SBuOaF8q-4">
          <mxGeometry relative="1" as="geometry" />
        </mxCell>
        <mxCell id="AJLxG5e4hJF3SBuOaF8q-3" value="Generate a random word" style="rounded=1;whiteSpace=wrap;html=1;" vertex="1" parent="WIyWlLk6GJQsqaUBKTNV-1">
          <mxGeometry x="160" y="140" width="120" height="60" as="geometry" />
        </mxCell>
        <mxCell id="AJLxG5e4hJF3SBuOaF8q-8" value="" style="edgeStyle=orthogonalEdgeStyle;rounded=0;orthogonalLoop=1;jettySize=auto;html=1;" edge="1" parent="WIyWlLk6GJQsqaUBKTNV-1" source="AJLxG5e4hJF3SBuOaF8q-4" target="AJLxG5e4hJF3SBuOaF8q-7">
          <mxGeometry relative="1" as="geometry" />
        </mxCell>
        <mxCell id="AJLxG5e4hJF3SBuOaF8q-4" value="generate empty spaces = to number of letters in word" style="rounded=1;whiteSpace=wrap;html=1;" vertex="1" parent="WIyWlLk6GJQsqaUBKTNV-1">
          <mxGeometry x="160" y="230" width="120" height="60" as="geometry" />
        </mxCell>
        <mxCell id="AJLxG5e4hJF3SBuOaF8q-12" value="" style="edgeStyle=orthogonalEdgeStyle;rounded=0;orthogonalLoop=1;jettySize=auto;html=1;" edge="1" parent="WIyWlLk6GJQsqaUBKTNV-1" source="AJLxG5e4hJF3SBuOaF8q-7" target="AJLxG5e4hJF3SBuOaF8q-11">
          <mxGeometry relative="1" as="geometry" />
        </mxCell>
        <mxCell id="AJLxG5e4hJF3SBuOaF8q-7" value="User to select a letter" style="whiteSpace=wrap;html=1;rounded=1;" vertex="1" parent="WIyWlLk6GJQsqaUBKTNV-1">
          <mxGeometry x="160" y="320" width="120" height="60" as="geometry" />
        </mxCell>
        <mxCell id="AJLxG5e4hJF3SBuOaF8q-14" value="" style="edgeStyle=orthogonalEdgeStyle;rounded=0;orthogonalLoop=1;jettySize=auto;html=1;" edge="1" parent="WIyWlLk6GJQsqaUBKTNV-1" source="AJLxG5e4hJF3SBuOaF8q-11" target="AJLxG5e4hJF3SBuOaF8q-13">
          <mxGeometry relative="1" as="geometry" />
        </mxCell>
        <mxCell id="AJLxG5e4hJF3SBuOaF8q-17" value="" style="edgeStyle=orthogonalEdgeStyle;rounded=0;orthogonalLoop=1;jettySize=auto;html=1;" edge="1" parent="WIyWlLk6GJQsqaUBKTNV-1" source="AJLxG5e4hJF3SBuOaF8q-11" target="AJLxG5e4hJF3SBuOaF8q-16">
          <mxGeometry relative="1" as="geometry" />
        </mxCell>
        <mxCell id="AJLxG5e4hJF3SBuOaF8q-11" value="is the letter in the word?" style="rhombus;whiteSpace=wrap;html=1;rounded=1;" vertex="1" parent="WIyWlLk6GJQsqaUBKTNV-1">
          <mxGeometry x="160" y="400" width="120" height="80" as="geometry" />
        </mxCell>
        <mxCell id="AJLxG5e4hJF3SBuOaF8q-20" value="" style="edgeStyle=orthogonalEdgeStyle;rounded=0;orthogonalLoop=1;jettySize=auto;html=1;" edge="1" parent="WIyWlLk6GJQsqaUBKTNV-1" source="AJLxG5e4hJF3SBuOaF8q-13" target="AJLxG5e4hJF3SBuOaF8q-19">
          <mxGeometry relative="1" as="geometry" />
        </mxCell>
        <mxCell id="AJLxG5e4hJF3SBuOaF8q-13" value="replace the blank with the letter" style="whiteSpace=wrap;html=1;rounded=1;" vertex="1" parent="WIyWlLk6GJQsqaUBKTNV-1">
          <mxGeometry x="-40" y="410" width="120" height="60" as="geometry" />
        </mxCell>
        <mxCell id="AJLxG5e4hJF3SBuOaF8q-15" value="YES" style="text;html=1;align=center;verticalAlign=middle;resizable=0;points=[];autosize=1;strokeColor=none;fillColor=none;" vertex="1" parent="WIyWlLk6GJQsqaUBKTNV-1">
          <mxGeometry x="105" y="408" width="50" height="30" as="geometry" />
        </mxCell>
        <mxCell id="AJLxG5e4hJF3SBuOaF8q-29" value="" style="edgeStyle=orthogonalEdgeStyle;rounded=0;orthogonalLoop=1;jettySize=auto;html=1;" edge="1" parent="WIyWlLk6GJQsqaUBKTNV-1" source="AJLxG5e4hJF3SBuOaF8q-16" target="AJLxG5e4hJF3SBuOaF8q-28">
          <mxGeometry relative="1" as="geometry" />
        </mxCell>
        <mxCell id="AJLxG5e4hJF3SBuOaF8q-16" value="Lose a life" style="whiteSpace=wrap;html=1;rounded=1;" vertex="1" parent="WIyWlLk6GJQsqaUBKTNV-1">
          <mxGeometry x="360" y="410" width="120" height="60" as="geometry" />
        </mxCell>
        <mxCell id="AJLxG5e4hJF3SBuOaF8q-18" value="NO" style="text;html=1;align=center;verticalAlign=middle;resizable=0;points=[];autosize=1;strokeColor=none;fillColor=none;" vertex="1" parent="WIyWlLk6GJQsqaUBKTNV-1">
          <mxGeometry x="280" y="408" width="40" height="30" as="geometry" />
        </mxCell>
        <mxCell id="AJLxG5e4hJF3SBuOaF8q-21" style="edgeStyle=orthogonalEdgeStyle;rounded=0;orthogonalLoop=1;jettySize=auto;html=1;entryX=0;entryY=0.5;entryDx=0;entryDy=0;" edge="1" parent="WIyWlLk6GJQsqaUBKTNV-1" source="AJLxG5e4hJF3SBuOaF8q-19" target="AJLxG5e4hJF3SBuOaF8q-7">
          <mxGeometry relative="1" as="geometry">
            <Array as="points">
              <mxPoint x="-90" y="560" />
              <mxPoint x="-90" y="350" />
            </Array>
          </mxGeometry>
        </mxCell>
        <mxCell id="AJLxG5e4hJF3SBuOaF8q-27" value="" style="edgeStyle=orthogonalEdgeStyle;rounded=0;orthogonalLoop=1;jettySize=auto;html=1;" edge="1" parent="WIyWlLk6GJQsqaUBKTNV-1" source="AJLxG5e4hJF3SBuOaF8q-19" target="AJLxG5e4hJF3SBuOaF8q-26">
          <mxGeometry relative="1" as="geometry">
            <Array as="points">
              <mxPoint x="20" y="680" />
              <mxPoint x="240" y="680" />
            </Array>
          </mxGeometry>
        </mxCell>
        <mxCell id="AJLxG5e4hJF3SBuOaF8q-19" value="Are there missing letters?" style="rhombus;whiteSpace=wrap;html=1;rounded=1;" vertex="1" parent="WIyWlLk6GJQsqaUBKTNV-1">
          <mxGeometry x="-40" y="520" width="120" height="80" as="geometry" />
        </mxCell>
        <mxCell id="AJLxG5e4hJF3SBuOaF8q-22" value="NO" style="text;html=1;align=center;verticalAlign=middle;resizable=0;points=[];autosize=1;strokeColor=none;fillColor=none;" vertex="1" parent="WIyWlLk6GJQsqaUBKTNV-1">
          <mxGeometry x="-80" y="570" width="40" height="30" as="geometry" />
        </mxCell>
        <mxCell id="AJLxG5e4hJF3SBuOaF8q-26" value="Game Over!" style="whiteSpace=wrap;html=1;rounded=1;" vertex="1" parent="WIyWlLk6GJQsqaUBKTNV-1">
          <mxGeometry x="180" y="750" width="120" height="60" as="geometry" />
        </mxCell>
        <mxCell id="AJLxG5e4hJF3SBuOaF8q-30" style="edgeStyle=orthogonalEdgeStyle;rounded=0;orthogonalLoop=1;jettySize=auto;html=1;entryX=1;entryY=0.5;entryDx=0;entryDy=0;" edge="1" parent="WIyWlLk6GJQsqaUBKTNV-1" source="AJLxG5e4hJF3SBuOaF8q-28" target="AJLxG5e4hJF3SBuOaF8q-7">
          <mxGeometry relative="1" as="geometry">
            <Array as="points">
              <mxPoint x="520" y="560" />
              <mxPoint x="520" y="350" />
            </Array>
          </mxGeometry>
        </mxCell>
        <mxCell id="AJLxG5e4hJF3SBuOaF8q-32" style="edgeStyle=orthogonalEdgeStyle;rounded=0;orthogonalLoop=1;jettySize=auto;html=1;entryX=0.5;entryY=0;entryDx=0;entryDy=0;" edge="1" parent="WIyWlLk6GJQsqaUBKTNV-1" source="AJLxG5e4hJF3SBuOaF8q-28" target="AJLxG5e4hJF3SBuOaF8q-26">
          <mxGeometry relative="1" as="geometry">
            <Array as="points">
              <mxPoint x="420" y="680" />
              <mxPoint x="240" y="680" />
            </Array>
          </mxGeometry>
        </mxCell>
        <mxCell id="AJLxG5e4hJF3SBuOaF8q-28" value="Ran out of lives?" style="rhombus;whiteSpace=wrap;html=1;rounded=1;" vertex="1" parent="WIyWlLk6GJQsqaUBKTNV-1">
          <mxGeometry x="360" y="520" width="120" height="80" as="geometry" />
        </mxCell>
        <mxCell id="AJLxG5e4hJF3SBuOaF8q-31" value="NO" style="text;html=1;align=center;verticalAlign=middle;resizable=0;points=[];autosize=1;strokeColor=none;fillColor=none;" vertex="1" parent="WIyWlLk6GJQsqaUBKTNV-1">
          <mxGeometry x="470" y="568" width="40" height="30" as="geometry" />
        </mxCell>
        <mxCell id="AJLxG5e4hJF3SBuOaF8q-33" value="YES" style="text;html=1;align=center;verticalAlign=middle;resizable=0;points=[];autosize=1;strokeColor=none;fillColor=none;" vertex="1" parent="WIyWlLk6GJQsqaUBKTNV-1">
          <mxGeometry x="365" y="628" width="50" height="30" as="geometry" />
        </mxCell>
        <mxCell id="AJLxG5e4hJF3SBuOaF8q-34" value="YES" style="text;html=1;align=center;verticalAlign=middle;resizable=0;points=[];autosize=1;strokeColor=none;fillColor=none;" vertex="1" parent="WIyWlLk6GJQsqaUBKTNV-1">
          <mxGeometry x="20" y="628" width="50" height="30" as="geometry" />
        </mxCell>
      </root>
    </mxGraphModel>
  </diagram>
</mxfile>
